# xmcd
#
# Track frame offsets:
#	150
#	13750
#	26015
#	41130
#	57022
#	74767
#	85605
#	97957
#	121745
#	139557
#
# Disc length: 2019 seconds
#
# Revision: 0
# Processed by: cddbd v1.5.1PL2 Copyright (c) Steve Scherf et al.
# Submitted via: audiograbber 1.83.01
#
DISCID=7d07e10a
DTITLE=Tom Hubbard - On The Dark Slide
DYEAR=1998
DGENRE=Blues
TTITLE0=Evil In The Blood
TTITLE1=Remembering Tomorrow
TTITLE2=The Hitman
TTITLE3=Regrets From Hell
TTITLE4=The Charm Of Voodoo
TTITLE5=I Can't Be One Womans Man
TTITLE6=Restless Shadows
TTITLE7=You've Got To Leave
TTITLE8=Everything I've Known (Has Gone)
TTITLE9=Ace Of My Heart
EXTD=
EXTT0=
EXTT1=
EXTT2=
EXTT3=
EXTT4=
EXTT5=
EXTT6=
EXTT7=
EXTT8=
EXTT9=
PLAYORDER=
